<svg width="27" height="27" viewBox="0 0 27 27" fill="none" xmlns="http://www.w3.org/2000/svg">
<path d="M24.1144 21.2139C23.451 20.5784 22.8052 19.9247 22.178 19.2535C21.651 18.7181 21.3337 18.3286 21.3337 18.3286L17.3673 16.4348C18.9552 14.634 19.8316 12.3158 19.8321 9.91501C19.8321 4.44901 15.3841 0 9.91605 0C4.44806 0 0 4.44901 0 9.91501C0 15.381 4.44806 19.83 9.91605 19.83C12.4135 19.83 14.6899 18.8952 16.4366 17.3669L18.3305 21.3329C18.3305 21.3329 18.7201 21.6501 19.2556 22.1771C19.8038 22.6912 20.5248 23.3867 21.2161 24.1133L23.1398 26.085L23.9954 27L27 23.9958L26.0849 23.1402C25.548 22.6133 24.8312 21.9136 24.1144 21.2139ZM9.91605 16.9972C6.01055 16.9972 2.83316 13.8201 2.83316 9.91501C2.83316 6.00991 6.01055 2.83286 9.91605 2.83286C13.8216 2.83286 16.999 6.00991 16.999 9.91501C16.999 13.8201 13.8216 16.9972 9.91605 16.9972Z" fill="black"/>
</svg>
