<svg width="107" height="74" viewBox="0 0 107 74" fill="none" xmlns="http://www.w3.org/2000/svg">
<path d="M91.2048 54.0966C98.0833 45.4207 107 33.4276 107 12.7586C107 11.2276 105.981 10.2069 104.452 10.2069C102.924 10.2069 101.905 11.2276 101.905 12.7586C101.905 29.8552 95.5357 40.0621 89.1667 48.2276C87.6381 43.3793 86.619 37.5103 86.619 30.6207C86.619 29.3448 85.6 28.069 84.0714 28.069C82.7976 28.069 81.5238 29.0897 81.5238 30.6207C81.2691 34.9586 79.9952 39.8069 78.9762 40.3172C77.9571 40.3172 76.6833 36.7448 76.4286 33.1724C76.4286 31.8966 75.1548 30.8759 73.881 30.8759C72.6071 30.8759 71.3333 31.6414 71.3333 33.1724C70.569 37.5103 68.531 43.6345 66.2381 43.6345C65.219 43.6345 64.7095 43.3793 64.4548 42.869C63.6905 42.1034 63.4357 40.3172 63.4357 38.7862C63.4357 37.7655 63.6905 36.7448 63.6905 35.7241C63.6905 34.4483 62.6714 33.1724 61.3976 33.1724C60.1238 33.1724 58.85 33.9379 58.5952 35.2138C58.5952 35.469 58.3405 36.4897 58.3405 38.0207C57.831 42.3586 56.3024 51.0345 50.9524 51.0345C49.169 51.0345 48.15 50.5241 47.3857 49.2483C46.1119 47.2069 46.1119 43.8897 47.3857 40.8276V40.5724C47.6405 40.3172 47.6405 39.8069 47.8952 39.5517C49.9333 35.469 52.2262 33.1724 56.0476 33.1724C57.5762 33.1724 58.5952 32.1517 58.5952 30.6207C58.5952 29.0897 57.5762 28.069 56.0476 28.069C45.3476 28.069 42.2905 38.531 39.2333 48.4828C35.6667 60.731 32.3548 68.8966 22.9286 68.8966C9.93571 68.8966 5.09524 52.0552 5.09524 40.8276C5.09524 18.8828 17.069 5.10345 28.0238 5.10345C35.4119 5.10345 38.2143 10.9724 38.469 11.2276C38.9786 12.5034 40.5071 13.0138 41.781 12.5034C43.0548 11.9931 43.5643 10.4621 43.0548 9.18621C42.8 8.67586 38.7238 0 28.0238 0C14.2667 0 0 15.3103 0 40.8276C0 67.1103 15.031 74 22.9286 74C35.9214 74 40.2524 62.5172 43.5643 52.3103C45.3476 54.6069 47.8952 56.1379 50.9524 56.1379C56.5571 56.1379 59.869 52.0552 61.6524 46.9517C62.9262 47.9724 64.4548 48.4828 66.2381 48.4828C69.8048 48.4828 72.3524 45.4207 73.881 42.3586C74.9 44.1448 76.6833 45.4207 78.9762 45.4207C80.5048 45.4207 81.7786 44.6552 82.7976 43.6345C83.5619 47.2069 84.581 50.5241 85.3452 53.331C81.7786 57.9241 78.9762 61.7517 78.9762 66.3448C78.9762 70.6828 82.2881 74 86.619 74C91.2048 74 94.2619 69.9172 94.2619 66.3448C94.2619 63.0276 92.9881 59.4552 91.4595 55.3724C91.4595 54.8621 91.2048 54.6069 91.2048 54.0966ZM86.619 68.8966C84.8357 68.8966 84.0714 67.6207 84.0714 66.3448C84.0714 64.0483 85.3452 61.7517 87.3833 58.9448C88.4024 62.0069 89.1667 64.3035 89.1667 66.3448C89.1667 67.1103 88.4024 68.8966 86.619 68.8966Z" fill="black"/>
</svg>
